<svg xmlns="http://www.w3.org/2000/svg" height="640" width="640" version="1.1">
  <defs>
    <filter id="flame">
      <feTurbulence type="fractalNoise" baseFrequency="0.02" numOctaves="5" seed="1"/>
      <feDisplacementMap in="SourceGraphic" scale="50"/>
      <feGaussianBlur stdDeviation="3"/>
      <feColorMatrix type="matrix" values="1 0 0 0 0
                                           0 0 1 0 0
                                           0.2 0 0 0 0
                                           0 0 0 10 -5"/>
    </filter>
    <linearGradient id="fireGradient" x1="0%" y1="0%" x2="0%" y2="100%">
      <stop offset="0%" style="stop-color:rgb(255,69,0);stop-opacity:1" />
      <stop offset="50%" style="stop-color:rgb(255,140,0);stop-opacity:1" />
      <stop offset="100%" style="stop-color:rgb(0,0,255);stop-opacity:1" />
    </linearGradient>
  </defs>
  <rect width="100%" height="100%" fill="black"/>
  <g transform="translate(0 -412.36)">
    <g fill="white">
      <path d="m207.5 778.26q1.2-47.4-5.4-86.4l-5.4-25.8q0-12.6 3.6-12.6 4.2 0 24 10.8 24 13.8 35.4 18 10.8 5.4 10.8 16.8 0 1.2-10.8 15.6-12.6 16.8-16.2 72.6l-1.8 10.8q-1.8 96.6 39.6 121.2 4.8 1.2 16.2 7.2 9 4.8 16.2 4.8h45.6q14.4-1.8 14.4-25.2 0-13.2-3.6-55.2-3.6-41.4-3.6-69l-2.4-10.8v-31.2q7.8 0 12 19.8 1.2 4.8 3 17.4 1.8 9.6 3 13.8l6 9q0.6 0.6 4.2 13.2 4.2 12.6 5.4 13.8 5.4 21 22.8 55.8 3.6 3 17.4 18l17.4 18.6q36 36 39.6 50.4 3.6 9.6-46.2 14.4-33.6 3.6-64.2 3.6l-18 3.6q-9.6 0.6-25.2-1.8-16.2-1.8-24-1.8-53.4-6.6-58.8-9.6-4.2-6.6-16.2-13.2-12.6-6-15-9.6-19.8-31.8-19.8-93.6l-0.6-50.4q-1.2-11.4-1.2-18.6l1.8-14.4zm197.4-108.6q3 0 32.4 11.4l27.6 11.4q18.6 7.2 27.6 11.4l16.2 9q10.2 6.6 16.2 9l17.4 7.2q11.4 4.2 17.4 7.8 19.8 11.4 19.8 28.2 0 18.6-7.2 38.4-7.2 21.6-16.2 21.6h-21.6l-3.6 1.8q-0.6 4.2-8.4-4.8-7.2-9-9.6-15-7.8-15-18.6-31.2-13.2-19.2-21-32.4-3.6-6-13.8-14.4-11.4-9.6-15-14.4 2.4 1.2-13.2-14.4-26.4-31.8-26.4-30.6zm-345 242.4q0-4.8 7.2-16.8 32.4-64.8 32.4-75.6 0-3 4.8-12.6t4.2-16.2l5.4-14.4q4.2-12 5.4-12.6-0.6 1.2 1.8-18.6 1.2-12.6 5.4-12.6 18 0 18 92.4 0 84.6-34.2 112.2-12.6 8.4-28.8 8.4-9 0-15.6-12.6-6-11.4-6-21zm225-303.6q-4.2-103.2-22.8-128.4-0.6-7.2 8.4-7.2 7.2 0 32.4 25.2 2.4 2.4 12.6 10.8 8.4 7.2 12.6 13.2 13.2 2.4 27.6-12.6 15.6-16.2 21.6-16.2 3.6 0 3.6 4.8 0 2.4-10.8 24-20.4 40.8-20.4 55.8-6 30-15 41.4-9 10.8-28.2 10.8-4.2-3-13.2-12-9.6-9-8.4-9.6z"/>
      <animate attributeName="fill" values="white;url(#fireGradient);white" dur="3s" repeatCount="indefinite"/>
      <animate attributeName="filter" values="none;url(#flame);none" dur="3s" repeatCount="indefinite"/>
    </g>
  </g>
</svg>
